<svg xmlns="http://www.w3.org/2000/svg" xmlns:xlink="http://www.w3.org/1999/xlink" viewBox="0 0 59 101.25" version="1.1" x="0px" y="0px"><title>Shape</title><desc>Created with Sketch.</desc><g stroke="none" stroke-width="1" fill="none" fill-rule="evenodd"><g transform="translate(-1495.000000, -31.000000)" fill="#000000"><path d="M1548.07212,32.0905665 C1550.30212,33.5605665 1550.45212,36.7705665 1549.98212,39.4005665 C1548.54212,47.4605665 1543.65212,55.5505665 1546.28212,63.3005665 C1547.28212,66.2405665 1549.28212,68.7105665 1550.72212,71.4605665 C1553.39934,76.6044256 1554.02822,82.5716136 1552.48212,88.1605665 C1551.00212,93.3705665 1547.71212,97.8405665 1544.48212,102.160567 C1542.74603,104.784242 1540.59458,107.107939 1538.11212,109.040567 C1534.40341,111.573256 1529.7409,112.273001 1525.45212,110.940567 C1519.65212,109.090567 1514.83212,103.610567 1508.79212,104.250567 C1503.05212,104.870567 1497.83212,99.9705665 1496.31212,94.4005665 C1494.79212,88.8305665 1496.14212,82.9105665 1498.05212,77.4705665 C1499.90876,72.1938891 1502.28019,67.1127353 1505.13212,62.3005665 C1508.13212,57.3005665 1512.76212,51.9805665 1518.58212,52.6105665 C1521.44212,52.9205665 1523.92212,54.6105665 1526.64212,55.5605665 C1527.76499,46.3983159 1532.89238,38.2054742 1540.64212,33.1905665 C1542.84212,31.7405665 1545.84212,30.6205665 1548.07212,32.0905665 L1548.07212,32.0905665 Z M1534.07212,77.8705665 C1533.38551,79.0104649 1532.50964,80.0249929 1531.48212,80.8705665 C1528.33321,83.9577346 1526.08295,87.8429828 1524.97212,92.1105665 C1524.34212,94.5405665 1524.09212,97.1105665 1523.09212,99.3905665 C1522.09212,101.670567 1520.09212,103.800567 1517.59212,103.980567 C1520.77708,107.904735 1525.77342,109.890456 1530.7832,109.223166 C1535.79297,108.555876 1540.09535,105.33159 1542.14212,100.710567 C1540.23351,101.425336 1538.13072,101.425336 1536.22212,100.710567 C1542.0603,99.2526641 1546.91334,95.2089227 1549.40074,89.7296263 C1551.88814,84.2503299 1551.73767,77.9351728 1548.99212,72.5805665 C1547.47212,69.5805665 1545.20212,67.0305665 1543.99212,63.9105665 C1540.88212,55.6605665 1546.13212,46.8505665 1547.74212,38.1805665 C1547.98212,36.8605665 1548.08212,35.3205665 1547.13212,34.3805665 C1545.87212,33.1205665 1543.72212,33.7805665 1542.13212,34.6705665 C1531.90955,40.8396418 1526.69733,52.7916797 1529.13212,64.4805665 C1527.55212,64.2805665 1527.38212,62.1205665 1527.07212,60.5605665 C1526.33212,56.8405665 1522.32212,54.3705665 1518.53212,54.5605665 C1514.74212,54.7505665 1511.31212,57.0205665 1508.83212,59.8905665 C1506.52212,62.5705665 1504.83212,66.4005665 1506.34212,69.6105665 C1507.30898,71.3140948 1508.74635,72.7028545 1510.48212,73.6105665 C1515.18317,76.5086432 1520.46506,78.3352801 1525.95212,78.9605665 C1528.30212,79.2305665 1531.23212,78.9605665 1532.19212,76.7805665 C1533.39212,74.0705665 1530.40212,71.4705665 1527.83212,70.0105665 L1516.75212,63.7005665 C1521.29027,64.2053295 1525.6451,65.7745755 1529.46212,68.2805665 C1532.71212,70.4205665 1535.76212,74.3905665 1534.06212,77.8805665 L1534.07212,77.8705665 Z M1525.26212,81.1605665 C1517.85212,79.9205665 1510.20212,77.3605665 1505.40212,71.5905665 C1504.88212,70.9605665 1504.22212,70.2305665 1503.40212,70.3505665 C1503.06234,70.4269114 1502.75064,70.5966173 1502.50212,70.8405665 C1500.71151,72.5961854 1500.05501,75.206766 1500.80212,77.6005665 C1501.58146,79.9558294 1503.078,82.0083275 1505.08212,83.4705665 C1510.18275,87.4394633 1516.88129,88.7121865 1523.08212,86.8905665 C1524.49578,86.5962511 1525.73989,85.7644486 1526.55212,84.5705665 C1527.23212,83.3205665 1526.69212,81.3705665 1525.28212,81.1405665 L1525.26212,81.1605665 Z M1499.28212,79.8205665 C1496.73212,84.0605665 1498.89212,89.9605665 1502.94212,92.8205665 C1506.99212,95.6805665 1512.31212,96.0305665 1517.22212,95.4205665 C1518.46329,95.318888 1519.67769,95.0042937 1520.81212,94.4905665 C1521.93591,94.0076633 1522.74312,92.9939598 1522.96212,91.7905665 C1523.08212,90.6005665 1521.96212,89.3105665 1520.83212,89.5405665 C1512.31487,91.0538106 1503.73897,87.202192 1499.21212,79.8305665 L1499.28212,79.8205665 Z M1497.89212,90.2205665 C1496.40212,91.4005665 1497.03212,93.7905665 1498.06212,95.4005665 C1502.82735,102.199661 1511.84656,104.494842 1519.28212,100.800567 C1520.14242,100.442608 1520.82323,99.75459 1521.17212,98.8905665 C1521.42212,98.0005665 1520.67212,96.8905665 1519.78212,97.0705665 C1515.79653,98.1464324 1511.60843,98.2322539 1507.58212,97.3205665 C1503.5227,96.3663932 1500.02522,93.8037412 1497.89212,90.2205665 L1497.89212,90.2205665 Z"/></g></g><text x="0" y="96" fill="#000000" font-size="5px" font-weight="bold" font-family="'Helvetica Neue', Helvetica, Arial-Unicode, Arial, Sans-serif">Created by Kevin</text><text x="0" y="101" fill="#000000" font-size="5px" font-weight="bold" font-family="'Helvetica Neue', Helvetica, Arial-Unicode, Arial, Sans-serif">from the Noun Project</text></svg>